<?xml version="1.0" encoding="UTF-8" standalone="no"?>
<!DOCTYPE svg PUBLIC "-//W3C//DTD SVG 1.1//EN" "http://www.w3.org/Graphics/SVG/1.1/DTD/svg11.dtd">
<svg width="100%" height="100%" viewBox="0 0 1011 535" version="1.1" xmlns="http://www.w3.org/2000/svg" xmlns:xlink="http://www.w3.org/1999/xlink" xml:space="preserve" xmlns:serif="http://www.serif.com/" style="fill-rule:evenodd;clip-rule:evenodd;stroke-linecap:round;stroke-linejoin:round;stroke-miterlimit:1.5;">
    <g id="Artboard1" transform="matrix(0.994751,0,0,0.963942,0.737581,-0.0769771)">
        <rect x="-0.741" y="0.08" width="1016" height="554.667" style="fill:none;"/>
        <g transform="matrix(1.00528,0,0,1.03741,-0.741473,0.0798565)">
            <path d="M8.5,511.191C8.5,236.981 231.123,14.357 505.333,14.357C779.543,14.357 1002.17,236.981 1002.17,511.191L753.75,511.191C753.75,374.086 642.438,262.774 505.333,262.774C368.228,262.774 256.917,374.086 256.917,511.191L8.5,511.191Z" style="fill:rgb(255,112,51);"/>
            <clipPath id="_clip1">
                <path d="M8.5,511.191C8.5,236.981 231.123,14.357 505.333,14.357C779.543,14.357 1002.17,236.981 1002.17,511.191L753.75,511.191C753.75,374.086 642.438,262.774 505.333,262.774C368.228,262.774 256.917,374.086 256.917,511.191L8.5,511.191Z"/>
            </clipPath>
            <g clip-path="url(#_clip1)">
                <rect x="-150.667" y="-43.077" width="656" height="631" style="fill:rgb(255,247,15);"/>
                <path d="M505.333,511.191L-34.667,39.923L-125.667,636.923L505.333,511.191Z" style="fill:rgb(28,138,255);"/>
                <g transform="matrix(-1,0,0,1,1010.67,-4.16334e-17)">
                    <path d="M505.333,511.191L-34.667,39.923L-125.667,636.923L505.333,511.191Z" style="fill:rgb(255,0,0);"/>
                </g>
            </g>
        </g>
        <g id="Orange" transform="matrix(0.0489601,1.03618,1.00408,-0.050525,-101.395,22.8952)">
            <path d="M450.635,549.062L442.56,570.982L165.634,432.879L450.635,549.062Z" style="fill:none;stroke:rgb(69,69,69);stroke-width:4.07px;"/>
        </g>
        <g transform="matrix(1.00528,0,0,1.03741,-11.0081,-50.5448)">
            <path d="M450.028,559.99L421.541,559.99C421.541,508.072 463.628,465.985 515.546,465.985C567.464,465.985 609.552,508.072 609.552,559.99L581.064,559.99L581.064,559.777C581.064,523.616 551.707,494.259 515.546,494.259C479.385,494.259 450.028,523.616 450.028,559.777L450.028,559.99Z" style="fill:rgb(55,70,73);"/>
        </g>
    </g>
</svg>
